<?xml version="1.0" standalone="no"?>
<!DOCTYPE svg PUBLIC "-//W3C//DTD SVG 20010904//EN"
 "http://www.w3.org/TR/2001/REC-SVG-20010904/DTD/svg10.dtd">
<svg version="1.0" xmlns="http://www.w3.org/2000/svg"
 width="700.000000pt" height="700.000000pt" viewBox="0 0 700.000000 700.000000"
 preserveAspectRatio="xMidYMid meet">
<metadata>
Created by potrace 1.14, written by Peter Selinger 2001-2017
</metadata>
<g transform="translate(0.000000,700.000000) scale(0.100000,-0.100000)"
fill="#000000" stroke="none">
<path d="M1230 5651 c0 -75 -1 -337 -3 -583 l-2 -447 24 22 c30 28 1077 1076
1114 1114 l28 30 -581 0 -580 0 0 -136z"/>
<path d="M4740 5781 c0 -7 1143 -1151 1150 -1151 3 0 5 260 5 577 l0 578 -578
1 c-317 0 -577 -2 -577 -5z"/>
<path d="M3537 5495 c-1 -1 -56 -5 -122 -9 -66 -3 -131 -8 -145 -11 -14 -3
-52 -10 -85 -16 -33 -5 -109 -23 -168 -40 -695 -190 -1242 -742 -1426 -1439
-17 -63 -33 -128 -35 -145 -14 -79 -19 -116 -26 -185 -8 -81 -6 -399 3 -440 4
-14 8 -44 11 -67 6 -45 6 -48 36 -175 102 -434 384 -868 736 -1131 49 -37 94
-70 99 -74 21 -17 133 -83 205 -120 155 -83 426 -175 580 -198 20 -3 47 -7 60
-10 101 -20 370 -25 515 -11 594 58 1146 392 1483 896 121 182 244 453 277
613 2 10 7 27 10 37 6 20 9 34 20 100 4 25 9 54 11 65 21 112 31 362 19 480
-2 22 -6 65 -9 95 -4 30 -8 66 -11 80 -3 14 -8 39 -11 55 -29 166 -117 411
-205 574 -117 218 -307 452 -478 591 -24 19 -48 40 -55 46 -53 50 -281 192
-389 242 -228 106 -469 170 -702 187 -98 7 -195 12 -198 10z m258 -471 c115
-17 226 -47 340 -91 538 -206 932 -711 1003 -1283 9 -74 9 -309 0 -392 -17
-152 -83 -368 -158 -519 -33 -65 -122 -207 -156 -249 -117 -142 -207 -231
-316 -311 -29 -21 -57 -42 -63 -47 -5 -4 -37 -24 -70 -43 -299 -174 -627 -248
-965 -216 -598 56 -1123 457 -1334 1019 -156 417 -133 876 64 1268 233 466
674 786 1189 864 112 17 352 17 466 0z"/>
<path d="M1230 2185 c-2 -500 0 -1058 3 -1061 2 -2 263 -3 580 -2 l577 3 -580
580 -580 580 0 -100z"/>
<path d="M5306 1700 l-579 -580 584 2 583 3 1 578 c0 317 -2 577 -5 577 -3 0
-266 -262 -584 -580z"/>
</g>
</svg>
